# xmcd
#
# Track frame offsets:
#	150
#	19502
#	37093
#	52091
#	70463
#	86723
#	101174
#	118887
#	132172
#	149125
#	165484
#
# Disc length: 2435 seconds
# Revision: 0
# Processed by: cddbd v1.5.2PL0 Copyright (c) Steve Scherf et al.
# Submitted via: dBpowerAMP V12.0
#
DISCID=a709810b
DTITLE=Duncan Street - Baptized By The Blues
DYEAR=2014
DGENRE=Blues
TTITLE0=Watermelon BBQ and Beer
TTITLE1=Come To Mississippi
TTITLE2=Color Me Blue
TTITLE3=Sharpest Marble In The Drawer
TTITLE4=I Be's Troubled
TTITLE5=Love Me Tonight
TTITLE6=Baptized By The Blues
TTITLE7=Shakin' The Bacon Down
TTITLE8=Tater Salad Woman
TTITLE9=Go Right Back To Bed
TTITLE10=The Blues Comes In All Colors
EXTD=
EXTT0=
EXTT1=
EXTT2=
EXTT3=
EXTT4=
EXTT5=
EXTT6=
EXTT7=
EXTT8=
EXTT9=
EXTT10=
PLAYORDER=
